<svg xmlns="http://www.w3.org/2000/svg" xmlns:xlink="http://www.w3.org/1999/xlink" viewBox="0,0,256,256" width="100px" height="100px"><g fill="#2251ee" fill-rule="nonzero" stroke="none" stroke-width="1" stroke-linecap="butt" stroke-linejoin="miter" stroke-miterlimit="10" stroke-dasharray="" stroke-dashoffset="0" font-family="none" font-weight="none" font-size="none" text-anchor="none" style="mix-blend-mode: normal"><g transform="scale(5.12,5.12)"><path d="M14,4c-5.51133,0 -10,4.48867 -10,10v22c0,5.51133 4.48867,10 10,10h22c5.51133,0 10,-4.48867 10,-10v-22c0,-5.51133 -4.48867,-10 -10,-10zM14,6h22c4.43067,0 8,3.56933 8,8v22c0,4.43067 -3.56933,8 -8,8h-22c-4.43067,0 -8,-3.56933 -8,-8v-22c0,-4.43067 3.56933,-8 8,-8zM25,11c-8.1938,0 -15,5.72433 -15,12.96289c0,4.45976 2.68123,8.28191 6.57227,10.59766c-0.59268,0.94029 -1.33853,1.91357 -2.27148,2.82422c-0.31292,0.30675 -0.38971,0.78148 -0.18946,1.17123c0.20025,0.38976 0.63091,0.60376 1.0625,0.52799c2.30815,-0.40948 4.72094,-1.25778 6.70508,-2.48633c1.00708,0.18803 2.03923,0.32813 3.12109,0.32813c8.1938,0 15,-5.72433 15,-12.96289c0,-7.23856 -6.80611,-12.96289 -15,-12.96289zM25,13c7.27011,0 13,4.98945 13,10.96289c0,5.97344 -5.7298,10.96289 -13,10.96289c-1.06408,0 -2.09492,-0.12042 -3.0957,-0.32812c-0.26141,-0.054 -0.53355,-0.00126 -0.75586,0.14648c-0.92594,0.61319 -2.05258,1.11797 -3.23633,1.53516c0.36724,-0.497 0.7528,-0.98559 1.00977,-1.54297c0.22633,-0.49175 0.02031,-1.07432 -0.46484,-1.31445c-3.90515,-1.9274 -6.45703,-5.45427 -6.45703,-9.45898c0,-5.97344 5.7298,-10.96289 13,-10.96289z"></path></g></g></svg>